<svg width="21" height="22" viewBox="0 0 21 22" fill="none" xmlns="http://www.w3.org/2000/svg">
<g id="Icon">
<path id="icon" fill-rule="evenodd" clip-rule="evenodd" d="M12.915 11.9667L17.9288 17.1339L16.625 18.4776L11.6113 13.3103C10.675 14.0047 9.54625 14.4285 8.3125 14.4285C5.17125 14.4285 2.625 11.8043 2.625 8.56693C2.625 5.32952 5.17125 2.70532 8.3125 2.70532C11.4538 2.70532 14 5.32952 14 8.56693C14 9.83845 13.5888 11.0018 12.915 11.9667ZM8.3125 4.50889C6.13375 4.50889 4.375 6.32148 4.375 8.56693C4.375 10.8124 6.13375 12.625 8.3125 12.625C10.4913 12.625 12.25 10.8124 12.25 8.56693C12.25 6.32148 10.4913 4.50889 8.3125 4.50889Z" fill="#212121"/>
</g>
</svg>
