<svg width="23" height="23" viewBox="0 0 23 23" fill="none" xmlns="http://www.w3.org/2000/svg">
<path d="M7.18872 6.4696H20.1262" stroke="black" stroke-width="1.00189" stroke-linecap="round" stroke-linejoin="round"/>
<path d="M7.18848 11.5007H20.126" stroke="black" stroke-width="1.00189" stroke-linecap="round" stroke-linejoin="round"/>
<path d="M7.18848 16.5332H20.126" stroke="black" stroke-width="1.00189" stroke-linecap="round" stroke-linejoin="round"/>
<path d="M3.60119 7.20202C4.00172 7.20202 4.32641 6.87733 4.32641 6.4768C4.32641 6.07628 4.00172 5.75159 3.60119 5.75159C3.20067 5.75159 2.87598 6.07628 2.87598 6.4768C2.87598 6.87733 3.20067 7.20202 3.60119 7.20202Z" stroke="black" stroke-width="1.00189" stroke-linecap="round" stroke-linejoin="round"/>
<path d="M3.60119 12.2327C4.00172 12.2327 4.32641 11.908 4.32641 11.5074C4.32641 11.1069 4.00172 10.7822 3.60119 10.7822C3.20067 10.7822 2.87598 11.1069 2.87598 11.5074C2.87598 11.908 3.20067 12.2327 3.60119 12.2327Z" stroke="black" stroke-width="1.00189" stroke-linecap="round" stroke-linejoin="round"/>
<path d="M3.60119 17.2645C4.00172 17.2645 4.32641 16.9398 4.32641 16.5393C4.32641 16.1388 4.00172 15.8141 3.60119 15.8141C3.20067 15.8141 2.87598 16.1388 2.87598 16.5393C2.87598 16.9398 3.20067 17.2645 3.60119 17.2645Z" stroke="black" stroke-width="1.00189" stroke-linecap="round" stroke-linejoin="round"/>
</svg>
