<svg width="104" height="45" viewBox="0 0 104 45" fill="none" xmlns="http://www.w3.org/2000/svg">
<g id="logo">
<g id="Group">
<path id="Vector" d="M53.3872 4.157C53.3872 1.85406 51.5331 0 49.2302 0C46.9272 0 45.0732 1.85406 45.0732 4.157C45.0732 6.45994 49.2302 10.7584 49.2302 10.7584C49.2302 10.7584 53.3872 6.45994 53.3872 4.157ZM47.2981 4.07405C47.2981 3.01529 48.1763 2.13705 49.2351 2.13705C50.2938 2.13705 51.1721 2.99089 51.1721 4.07405C51.1721 5.15722 50.3182 6.01106 49.2351 6.01106C48.1519 6.01106 47.2981 5.13282 47.2981 4.07405Z" fill="#212121"/>
<path id="Vector_2" d="M8.314 35.4662C8.314 33.1633 6.45994 31.3092 4.157 31.3092C1.85406 31.3092 0 33.1633 0 35.4662C0 37.7691 4.157 42.0676 4.157 42.0676C4.157 42.0676 8.314 37.7691 8.314 35.4662ZM2.21999 35.3833C2.21999 34.3245 3.09823 33.4463 4.157 33.4463C5.21576 33.4463 6.094 34.3001 6.094 35.3833C6.094 36.4664 5.24016 37.3203 4.157 37.3203C3.07384 37.3203 2.21999 36.442 2.21999 35.3833Z" fill="#212121"/>
<path id="Vector_3" d="M3.6691 44.5853L6.01595 42.1457H32.1436C39.4671 42.1457 42.8874 39.5549 42.8874 34.3831C42.8874 30.3773 39.5159 29.3039 33.2658 29.3039H20.2288C13.0516 29.3039 9.53378 27.0547 9.53378 22.3707C9.53378 15.7303 13.9786 11.9197 23.7466 11.9197H49.24L46.898 14.4129H23.1123C15.8376 14.4129 12.3198 16.9988 12.3198 22.1268C12.3198 26.0837 15.6912 27.1083 21.9901 27.1083H35.0759C42.1067 27.1083 45.7221 29.3039 45.7221 34.0415C45.7221 40.7796 41.3748 44.5902 31.5093 44.5902H3.6691V44.5853Z" fill="#212121"/>
<g id="Group_2">
<path id="Vector_4" d="M48.1129 35.1443C48.1129 29.1186 52.3577 25.1616 57.6076 25.1616C61.145 25.1616 64.7555 26.9669 65.9997 30.7238L64.414 31.3581C63.2674 28.455 60.6083 26.7961 57.632 26.7961C53.5092 26.7961 49.9718 29.9187 49.9718 35.1638C49.9718 40.7309 53.9483 43.3656 57.9004 43.3656C61.8524 43.3656 64.292 40.7309 65.1702 37.6082L66.7315 38.1693C65.5362 42.0726 62.5355 45.0001 57.7247 45.0001C52.0893 45.0001 48.1129 40.9504 48.1129 35.1394V35.1443Z" fill="#212121"/>
<path id="Vector_5" d="M67.4 25.552H69.2541C71.3765 30.6263 73.8648 36.8959 76.0848 42.5606H76.1336C78.378 36.8959 80.8907 30.6263 82.8912 25.552H84.7452L77.0362 44.5854H75.109L67.4 25.552Z" fill="#212121"/>
<path id="Vector_6" d="M87.6629 25.552H94.3716C100.714 25.552 103.398 29.7968 103.398 34.9443C103.398 40.604 100.129 44.5805 94.5912 44.5805H87.6629V25.5471V25.552ZM94.6937 42.9997C98.8897 42.9997 101.573 39.999 101.573 35.0955C101.573 30.192 98.6945 27.1377 93.9862 27.1377H89.4242V42.9997H94.6937Z" fill="#212121"/>
</g>
</g>
</g>
</svg>
