<svg width="21" height="22" viewBox="0 0 21 22" fill="none" xmlns="http://www.w3.org/2000/svg">
<g id="Icon">
<path id="icon" fill-rule="evenodd" clip-rule="evenodd" d="M12.915 12.0313L17.9288 17.2194L16.625 18.5685L11.6113 13.3804C10.675 14.0775 9.54625 14.5031 8.3125 14.5031C5.17125 14.5031 2.625 11.8683 2.625 8.61776C2.625 5.36724 5.17125 2.73242 8.3125 2.73242C11.4538 2.73242 14 5.36724 14 8.61776C14 9.89443 13.5888 11.0624 12.915 12.0313ZM8.3125 4.5433C6.13375 4.5433 4.375 6.36322 4.375 8.61776C4.375 10.8723 6.13375 12.6922 8.3125 12.6922C10.4913 12.6922 12.25 10.8723 12.25 8.61776C12.25 6.36322 10.4913 4.5433 8.3125 4.5433Z" fill="#212121"/>
</g>
</svg>
