<svg width="24" height="24" viewBox="0 0 24 24" fill="none" xmlns="http://www.w3.org/2000/svg">
<g id="map">
<path id="Vector" d="M14.6844 5.84323L9.31538 2.40823C9.10181 2.30154 8.86586 2.24738 8.62714 2.25023C8.38843 2.25308 8.15384 2.31287 7.94288 2.42463L2.64881 5.97682C2.52837 6.04062 2.42759 6.13605 2.35731 6.25283C2.28703 6.36961 2.2499 6.50333 2.24991 6.63963V20.5053C2.2499 20.6346 2.28334 20.7618 2.34698 20.8744C2.41062 20.987 2.5023 21.0812 2.61311 21.1479C2.72393 21.2146 2.85011 21.2515 2.9794 21.255C3.1087 21.2586 3.23671 21.2286 3.351 21.1681L7.93632 18.1779C8.149 18.0652 8.38567 18.0054 8.62635 18.0034C8.86703 18.0015 9.10464 18.0575 9.31913 18.1667L14.5626 21.5885C14.7752 21.6969 15.0106 21.7529 15.2492 21.752C15.4878 21.7511 15.7228 21.6933 15.9346 21.5834L21.3454 18.0237C21.4673 17.9604 21.5695 17.8649 21.6408 17.7475C21.7122 17.6301 21.7499 17.4954 21.7499 17.3581V3.49619C21.7499 3.36685 21.7165 3.2397 21.6528 3.1271C21.5892 3.0145 21.4975 2.92027 21.3867 2.85356C21.2759 2.78686 21.1497 2.74994 21.0204 2.74641C20.8911 2.74287 20.7631 2.77283 20.6488 2.83338L16.0551 5.82682C15.8443 5.93827 15.6101 5.99789 15.3717 6.00074C15.1334 6.00359 14.8978 5.9496 14.6844 5.84323Z" stroke="black" stroke-width="1.00189" stroke-linecap="round" stroke-linejoin="round"/>
<path id="Vector_2" d="M15.3755 5.99988V21.7499" stroke="black" stroke-width="1.00189" stroke-linecap="round" stroke-linejoin="round"/>
<path id="Vector_3" d="M8.62463 2.25098V18.001" stroke="black" stroke-width="1.00189" stroke-linecap="round" stroke-linejoin="round"/>
</g>
</svg>
