<svg width="128" height="128" viewBox="0 0 128 128" fill="none" xmlns="http://www.w3.org/2000/svg">
<path d="M128 11.933C128 5.32224 123.555 0 118.033 0C112.512 0 108.066 5.32224 108.066 11.933C108.066 18.5438 118.033 30.883 118.033 30.883C118.033 30.883 128 18.5438 128 11.933ZM113.401 11.6949C113.401 8.65565 115.506 6.13459 118.045 6.13459C120.583 6.13459 122.689 8.58562 122.689 11.6949C122.689 14.8042 120.642 17.2553 118.045 17.2553C115.448 17.2553 113.401 14.7342 113.401 11.6949Z" fill="#060300"/>
<path d="M19.9335 101.809C19.9335 95.1982 15.4882 89.876 9.96673 89.876C4.44526 89.876 0 95.1982 0 101.809C0 108.42 9.96673 120.759 9.96673 120.759C9.96673 120.759 19.9335 108.42 19.9335 101.809ZM5.32261 101.571C5.32261 98.5316 7.42825 96.0106 9.96673 96.0106C12.5052 96.0106 14.6108 98.4616 14.6108 101.571C14.6108 104.68 12.5637 107.131 9.96673 107.131C7.36976 107.131 5.32261 104.61 5.32261 101.571Z" fill="#060300"/>
<path d="M8.79688 127.986L14.4236 120.983H77.0666C94.6254 120.983 102.826 113.546 102.826 98.6996C102.826 87.2008 94.7424 84.1195 79.7572 84.1195H48.5C31.2922 84.1195 22.8579 77.6628 22.8579 64.2171C22.8579 45.155 33.5148 34.2164 56.9343 34.2164H118.057L112.442 41.3734H55.4136C37.9718 41.3734 29.5375 48.7966 29.5375 63.5168C29.5375 74.8756 37.6208 77.8168 52.723 77.8168H84.0972C100.954 77.8168 109.622 84.1195 109.622 97.7192C109.622 117.061 99.1993 128 75.5459 128H8.79688V127.986Z" fill="#12120D"/>
</svg>
