<svg width="512" height="512" viewBox="0 0 512 512" fill="none" xmlns="http://www.w3.org/2000/svg">
<path d="M512 47.7321C512 21.289 494.219 0 472.133 0C450.047 0 432.266 21.289 432.266 47.7321C432.266 74.1753 472.133 123.532 472.133 123.532C472.133 123.532 512 74.1753 512 47.7321ZM453.603 46.7797C453.603 34.6226 462.026 24.5383 472.18 24.5383C482.334 24.5383 490.756 34.3425 490.756 46.7797C490.756 59.217 482.568 69.0211 472.18 69.0211C461.792 69.0211 453.603 58.9369 453.603 46.7797Z" fill="#060300"/>
<path d="M79.7338 407.235C79.7338 380.792 61.9528 359.503 39.8669 359.503C17.781 359.503 0 380.792 0 407.235C0 433.679 39.8669 483.035 39.8669 483.035C39.8669 483.035 79.7338 433.679 79.7338 407.235ZM21.2904 406.283C21.2904 394.126 29.713 384.042 39.8669 384.042C50.0208 384.042 58.4434 393.846 58.4434 406.283C58.4434 418.72 50.2548 428.524 39.8669 428.524C29.4791 428.524 21.2904 418.44 21.2904 406.283Z" fill="#060300"/>
<path d="M35.1875 511.944L57.6945 483.932H308.267C378.502 483.932 411.303 454.184 411.303 394.799C411.303 348.803 378.969 336.478 319.029 336.478H194C125.169 336.478 91.4317 310.651 91.4317 256.868C91.4317 180.62 134.059 136.866 227.737 136.866H472.226L449.766 165.494H221.654C151.887 165.494 118.15 195.186 118.15 254.067C118.15 299.502 150.483 311.267 210.892 311.267H336.389C403.816 311.267 438.489 336.478 438.489 390.877C438.489 468.246 396.797 512 302.184 512H35.1875V511.944Z" fill="#12120D"/>
</svg>
