<svg width="74" height="32" viewBox="0 0 74 32" fill="none" xmlns="http://www.w3.org/2000/svg">
<g id="Group">
<path id="Vector" d="M37.9642 2.95609C37.9642 1.31844 36.6458 0 35.0081 0C33.3705 0 32.052 1.31844 32.052 2.95609C32.052 4.59373 35.0081 7.65044 35.0081 7.65044C35.0081 7.65044 37.9642 4.59373 37.9642 2.95609ZM33.6342 2.89711C33.6342 2.14421 34.2587 1.51968 35.0116 1.51968C35.7645 1.51968 36.389 2.12686 36.389 2.89711C36.389 3.66735 35.7819 4.27453 35.0116 4.27453C34.2414 4.27453 33.6342 3.65001 33.6342 2.89711Z" fill="#212121"/>
<path id="Vector_2" d="M5.91218 25.2205C5.91218 23.5828 4.59373 22.2644 2.95609 22.2644C1.31844 22.2644 0 23.5828 0 25.2205C0 26.8581 2.95609 29.9148 2.95609 29.9148C2.95609 29.9148 5.91218 26.8581 5.91218 25.2205ZM1.57866 25.1615C1.57866 24.4086 2.20319 23.7841 2.95609 23.7841C3.70899 23.7841 4.33351 24.3913 4.33351 25.1615C4.33351 25.9318 3.72634 26.5389 2.95609 26.5389C2.18584 26.5389 1.57866 25.9144 1.57866 25.1615Z" fill="#212121"/>
<path id="Vector_3" d="M2.60914 31.7052L4.27801 29.9704H22.8576C28.0655 29.9704 30.4977 28.1281 30.4977 24.4503C30.4977 21.6018 28.1002 20.8385 23.6557 20.8385H14.3849C9.28115 20.8385 6.77958 19.239 6.77958 15.9082C6.77958 11.1861 9.94038 8.47632 16.8865 8.47632H35.0151L33.3497 10.2493H16.4354C11.2623 10.2493 8.76072 12.0882 8.76072 15.7347C8.76072 18.5485 11.1582 19.2771 15.6374 19.2771H24.9429C29.9425 19.2771 32.5135 20.8385 32.5135 24.2074C32.5135 28.9989 29.4221 31.7087 22.4066 31.7087H2.60914V31.7052Z" fill="#212121"/>
<g id="Group_2">
<path id="Vector_4" d="M34.2136 24.9914C34.2136 20.7064 37.2321 17.8926 40.9654 17.8926C43.4809 17.8926 46.0484 19.1763 46.9331 21.8479L45.8055 22.299C44.9901 20.2345 43.0992 19.0549 40.9828 19.0549C38.051 19.0549 35.5355 21.2754 35.5355 25.0052C35.5355 28.964 38.3632 30.8376 41.1736 30.8376C43.984 30.8376 45.7188 28.964 46.3433 26.7435L47.4535 27.1425C46.6035 29.9182 44.4697 31.9999 41.0487 31.9999C37.0413 31.9999 34.2136 29.1202 34.2136 24.9879V24.9914Z" fill="#212121"/>
<path id="Vector_5" d="M47.9289 18.1702H49.2474C50.7566 21.7785 52.5261 26.237 54.1048 30.2652H54.1395C55.7355 26.237 57.5223 21.7785 58.9448 18.1702H60.2633L54.7813 31.705H53.4109L47.9289 18.1702Z" fill="#212121"/>
<path id="Vector_6" d="M62.3381 18.1702H67.1087C71.6192 18.1702 73.5275 21.1888 73.5275 24.8492C73.5275 28.8739 71.2029 31.7016 67.2649 31.7016H62.3381V18.1667V18.1702ZM67.3377 30.5775C70.3216 30.5775 72.2298 28.4437 72.2298 24.9567C72.2298 21.4698 70.1828 19.2978 66.8346 19.2978H63.5906V30.5775H67.3377Z" fill="#212121"/>
</g>
</g>
</svg>
