<svg width="48" height="48" viewBox="0 0 48 48" fill="none" xmlns="http://www.w3.org/2000/svg">
<path d="M47.9999 4.47489C47.9999 1.99584 46.333 0 44.2624 0C42.1919 0 40.5249 1.99584 40.5249 4.47489C40.5249 6.95393 44.2624 11.5811 44.2624 11.5811C44.2624 11.5811 47.9999 6.95393 47.9999 4.47489ZM42.5253 4.3856C42.5253 3.24587 43.3149 2.30047 44.2668 2.30047C45.2187 2.30047 46.0084 3.21961 46.0084 4.3856C46.0084 5.55159 45.2407 6.47073 44.2668 6.47073C43.293 6.47073 42.5253 5.52533 42.5253 4.3856Z" fill="#060300"/>
<path d="M7.47505 38.1784C7.47505 35.6993 5.80808 33.7035 3.73752 33.7035C1.66697 33.7035 0 35.6993 0 38.1784C0 40.6574 3.73752 45.2846 3.73752 45.2846C3.73752 45.2846 7.47505 40.6574 7.47505 38.1784ZM1.99598 38.0891C1.99598 36.9494 2.7856 36.004 3.73752 36.004C4.68945 36.004 5.47907 36.9231 5.47907 38.0891C5.47907 39.2551 4.71139 40.1742 3.73752 40.1742C2.76366 40.1742 1.99598 39.2288 1.99598 38.0891Z" fill="#060300"/>
<path d="M3.29883 47.9948L5.40886 45.3686H28.9C35.4845 45.3686 38.5596 42.5797 38.5596 37.0124C38.5596 32.7003 35.5284 31.5448 29.9089 31.5448H18.1875C11.7346 31.5448 8.57172 29.1235 8.57172 24.0814C8.57172 16.9332 12.5681 12.8312 21.3504 12.8312H44.2712L42.1656 15.5151H20.7801C14.2394 15.5151 11.0766 18.2987 11.0766 23.8188C11.0766 28.0784 14.1078 29.1813 19.7711 29.1813H31.5364C37.8578 29.1813 41.1084 31.5448 41.1084 36.6447C41.1084 43.898 37.1997 48 28.3297 48H3.29883V47.9948Z" fill="#12120D"/>
</svg>
