<svg width="24" height="24" viewBox="0 0 24 24" fill="none" xmlns="http://www.w3.org/2000/svg">
<path d="M22.1067 12.7534L13.0534 3.70002C12.9329 3.58167 12.7901 3.48833 12.6334 3.4254C12.4766 3.36247 12.3089 3.33119 12.14 3.33336H10.7467L21.1667 13.6334L14.1467 20.7134C14.2662 20.8329 14.4081 20.9277 14.5642 20.9924C14.7203 21.0571 14.8877 21.0904 15.0567 21.0904C15.2257 21.0904 15.3931 21.0571 15.5492 20.9924C15.7054 20.9277 15.8472 20.8329 15.9667 20.7134L22.1067 14.5734C22.2262 14.4539 22.3211 14.312 22.3858 14.1559C22.4505 13.9997 22.4837 13.8324 22.4837 13.6634C22.4837 13.4943 22.4505 13.327 22.3858 13.1708C22.3211 13.0147 22.2262 12.8728 22.1067 12.7534Z" fill="#7D7D7D"/>
<path d="M5.20674 8.31337C5.69643 8.31337 6.0934 7.9164 6.0934 7.42671C6.0934 6.93701 5.69643 6.54004 5.20674 6.54004C4.71704 6.54004 4.32007 6.93701 4.32007 7.42671C4.32007 7.9164 4.71704 8.31337 5.20674 8.31337Z" fill="#7D7D7D"/>
<path d="M18.52 12.7802L9.46666 3.72016C9.3478 3.59819 9.2058 3.50117 9.04897 3.43477C8.89214 3.36838 8.72363 3.33395 8.55333 3.3335H2.40666C2.06542 3.3335 1.73815 3.46906 1.49685 3.71035C1.25555 3.95165 1.12 4.27892 1.12 4.62016V10.7668C1.12046 10.9355 1.15427 11.1025 1.21948 11.2581C1.2847 11.4137 1.38003 11.5549 1.5 11.6735L10.56 20.7335C10.6795 20.853 10.8213 20.9479 10.9775 21.0125C11.1336 21.0772 11.301 21.1105 11.47 21.1105C11.639 21.1105 11.8064 21.0772 11.9625 21.0125C12.1186 20.9479 12.2605 20.853 12.38 20.7335L18.52 14.5935C18.7594 14.3525 18.8937 14.0265 18.8937 13.6868C18.8937 13.3471 18.7594 13.0212 18.52 12.7802ZM11.5067 19.7935L2.46 10.7668V4.66683H8.52666L17.58 13.6535L11.5067 19.7935Z" fill="#7D7D7D"/>
</svg>
